<mxfile host="app.diagrams.net" modified="2022-08-06T20:41:46.559Z" agent="5.0 (Windows NT 10.0; Win64; x64) AppleWebKit/537.36 (KHTML, like Gecko) Chrome/104.0.0.0 Safari/537.36" etag="6IMyPoyHB0gDv5C4biE9" version="20.2.3" type="github">
  <diagram id="C5RBs43oDa-KdzZeNtuy" name="Page-1">
    <mxGraphModel dx="2391" dy="2041" grid="1" gridSize="10" guides="1" tooltips="1" connect="1" arrows="1" fold="1" page="1" pageScale="1" pageWidth="827" pageHeight="1169" math="0" shadow="0">
      <root>
        <mxCell id="WIyWlLk6GJQsqaUBKTNV-0" />
        <mxCell id="WIyWlLk6GJQsqaUBKTNV-1" parent="WIyWlLk6GJQsqaUBKTNV-0" />
        <mxCell id="ps4rAWVM_7RL9xtSaBnT-12" style="edgeStyle=orthogonalEdgeStyle;rounded=0;orthogonalLoop=1;jettySize=auto;html=1;" edge="1" parent="WIyWlLk6GJQsqaUBKTNV-1" source="ps4rAWVM_7RL9xtSaBnT-4" target="ps4rAWVM_7RL9xtSaBnT-5">
          <mxGeometry relative="1" as="geometry" />
        </mxCell>
        <mxCell id="ps4rAWVM_7RL9xtSaBnT-4" value="INICIO" style="rounded=1;whiteSpace=wrap;html=1;arcSize=50;" vertex="1" parent="WIyWlLk6GJQsqaUBKTNV-1">
          <mxGeometry x="344" y="-20" width="140" height="60" as="geometry" />
        </mxCell>
        <mxCell id="ps4rAWVM_7RL9xtSaBnT-13" style="edgeStyle=orthogonalEdgeStyle;rounded=0;orthogonalLoop=1;jettySize=auto;html=1;" edge="1" parent="WIyWlLk6GJQsqaUBKTNV-1" source="ps4rAWVM_7RL9xtSaBnT-5" target="ps4rAWVM_7RL9xtSaBnT-10">
          <mxGeometry relative="1" as="geometry" />
        </mxCell>
        <mxCell id="ps4rAWVM_7RL9xtSaBnT-5" value="int a&lt;br&gt;int b&lt;br&gt;int c&lt;br&gt;int x&lt;br&gt;int y&lt;br&gt;int z&lt;br&gt;" style="rounded=0;whiteSpace=wrap;html=1;" vertex="1" parent="WIyWlLk6GJQsqaUBKTNV-1">
          <mxGeometry x="354" y="70" width="120" height="100" as="geometry" />
        </mxCell>
        <mxCell id="ps4rAWVM_7RL9xtSaBnT-18" style="edgeStyle=orthogonalEdgeStyle;rounded=0;orthogonalLoop=1;jettySize=auto;html=1;" edge="1" parent="WIyWlLk6GJQsqaUBKTNV-1" source="ps4rAWVM_7RL9xtSaBnT-6" target="ps4rAWVM_7RL9xtSaBnT-7">
          <mxGeometry relative="1" as="geometry" />
        </mxCell>
        <mxCell id="ps4rAWVM_7RL9xtSaBnT-6" value="Ingrese el tercer Numero" style="shape=document;whiteSpace=wrap;html=1;boundedLbl=1;" vertex="1" parent="WIyWlLk6GJQsqaUBKTNV-1">
          <mxGeometry x="354" y="570" width="120" height="80" as="geometry" />
        </mxCell>
        <mxCell id="ps4rAWVM_7RL9xtSaBnT-26" style="edgeStyle=orthogonalEdgeStyle;rounded=0;orthogonalLoop=1;jettySize=auto;html=1;" edge="1" parent="WIyWlLk6GJQsqaUBKTNV-1" source="ps4rAWVM_7RL9xtSaBnT-7" target="ps4rAWVM_7RL9xtSaBnT-25">
          <mxGeometry relative="1" as="geometry" />
        </mxCell>
        <mxCell id="ps4rAWVM_7RL9xtSaBnT-7" value="c" style="shape=parallelogram;perimeter=parallelogramPerimeter;whiteSpace=wrap;html=1;fixedSize=1;" vertex="1" parent="WIyWlLk6GJQsqaUBKTNV-1">
          <mxGeometry x="354" y="670" width="120" height="60" as="geometry" />
        </mxCell>
        <mxCell id="ps4rAWVM_7RL9xtSaBnT-16" style="edgeStyle=orthogonalEdgeStyle;rounded=0;orthogonalLoop=1;jettySize=auto;html=1;" edge="1" parent="WIyWlLk6GJQsqaUBKTNV-1" source="ps4rAWVM_7RL9xtSaBnT-8" target="ps4rAWVM_7RL9xtSaBnT-9">
          <mxGeometry relative="1" as="geometry" />
        </mxCell>
        <mxCell id="ps4rAWVM_7RL9xtSaBnT-8" value="Ingrese el segundo Numero" style="shape=document;whiteSpace=wrap;html=1;boundedLbl=1;" vertex="1" parent="WIyWlLk6GJQsqaUBKTNV-1">
          <mxGeometry x="354" y="370" width="120" height="80" as="geometry" />
        </mxCell>
        <mxCell id="ps4rAWVM_7RL9xtSaBnT-17" style="edgeStyle=orthogonalEdgeStyle;rounded=0;orthogonalLoop=1;jettySize=auto;html=1;" edge="1" parent="WIyWlLk6GJQsqaUBKTNV-1" source="ps4rAWVM_7RL9xtSaBnT-9" target="ps4rAWVM_7RL9xtSaBnT-6">
          <mxGeometry relative="1" as="geometry" />
        </mxCell>
        <mxCell id="ps4rAWVM_7RL9xtSaBnT-9" value="b" style="shape=parallelogram;perimeter=parallelogramPerimeter;whiteSpace=wrap;html=1;fixedSize=1;" vertex="1" parent="WIyWlLk6GJQsqaUBKTNV-1">
          <mxGeometry x="354" y="470" width="120" height="60" as="geometry" />
        </mxCell>
        <mxCell id="ps4rAWVM_7RL9xtSaBnT-14" style="edgeStyle=orthogonalEdgeStyle;rounded=0;orthogonalLoop=1;jettySize=auto;html=1;" edge="1" parent="WIyWlLk6GJQsqaUBKTNV-1" source="ps4rAWVM_7RL9xtSaBnT-10" target="ps4rAWVM_7RL9xtSaBnT-11">
          <mxGeometry relative="1" as="geometry" />
        </mxCell>
        <mxCell id="ps4rAWVM_7RL9xtSaBnT-10" value="Ingrese el primer Numero" style="shape=document;whiteSpace=wrap;html=1;boundedLbl=1;" vertex="1" parent="WIyWlLk6GJQsqaUBKTNV-1">
          <mxGeometry x="354" y="190" width="120" height="80" as="geometry" />
        </mxCell>
        <mxCell id="ps4rAWVM_7RL9xtSaBnT-15" style="edgeStyle=orthogonalEdgeStyle;rounded=0;orthogonalLoop=1;jettySize=auto;html=1;" edge="1" parent="WIyWlLk6GJQsqaUBKTNV-1" source="ps4rAWVM_7RL9xtSaBnT-11" target="ps4rAWVM_7RL9xtSaBnT-8">
          <mxGeometry relative="1" as="geometry" />
        </mxCell>
        <mxCell id="ps4rAWVM_7RL9xtSaBnT-11" value="a" style="shape=parallelogram;perimeter=parallelogramPerimeter;whiteSpace=wrap;html=1;fixedSize=1;" vertex="1" parent="WIyWlLk6GJQsqaUBKTNV-1">
          <mxGeometry x="354" y="290" width="120" height="60" as="geometry" />
        </mxCell>
        <mxCell id="ps4rAWVM_7RL9xtSaBnT-28" value="V" style="edgeStyle=orthogonalEdgeStyle;rounded=0;orthogonalLoop=1;jettySize=auto;html=1;entryX=0.5;entryY=0;entryDx=0;entryDy=0;" edge="1" parent="WIyWlLk6GJQsqaUBKTNV-1" source="ps4rAWVM_7RL9xtSaBnT-25" target="ps4rAWVM_7RL9xtSaBnT-27">
          <mxGeometry relative="1" as="geometry" />
        </mxCell>
        <mxCell id="ps4rAWVM_7RL9xtSaBnT-51" value="F" style="edgeStyle=orthogonalEdgeStyle;rounded=0;orthogonalLoop=1;jettySize=auto;html=1;" edge="1" parent="WIyWlLk6GJQsqaUBKTNV-1" source="ps4rAWVM_7RL9xtSaBnT-25" target="ps4rAWVM_7RL9xtSaBnT-52">
          <mxGeometry relative="1" as="geometry">
            <mxPoint x="130" y="820" as="targetPoint" />
          </mxGeometry>
        </mxCell>
        <mxCell id="ps4rAWVM_7RL9xtSaBnT-25" value="a&amp;lt;b" style="rhombus;whiteSpace=wrap;html=1;" vertex="1" parent="WIyWlLk6GJQsqaUBKTNV-1">
          <mxGeometry x="374" y="780" width="80" height="80" as="geometry" />
        </mxCell>
        <mxCell id="ps4rAWVM_7RL9xtSaBnT-30" value="V" style="edgeStyle=orthogonalEdgeStyle;rounded=0;orthogonalLoop=1;jettySize=auto;html=1;entryX=0.5;entryY=0;entryDx=0;entryDy=0;" edge="1" parent="WIyWlLk6GJQsqaUBKTNV-1" source="ps4rAWVM_7RL9xtSaBnT-27" target="ps4rAWVM_7RL9xtSaBnT-31">
          <mxGeometry relative="1" as="geometry">
            <mxPoint x="830" y="1060" as="targetPoint" />
          </mxGeometry>
        </mxCell>
        <mxCell id="ps4rAWVM_7RL9xtSaBnT-45" value="F" style="edgeStyle=orthogonalEdgeStyle;rounded=0;orthogonalLoop=1;jettySize=auto;html=1;" edge="1" parent="WIyWlLk6GJQsqaUBKTNV-1" source="ps4rAWVM_7RL9xtSaBnT-27" target="ps4rAWVM_7RL9xtSaBnT-46">
          <mxGeometry relative="1" as="geometry">
            <mxPoint x="510" y="1040" as="targetPoint" />
          </mxGeometry>
        </mxCell>
        <mxCell id="ps4rAWVM_7RL9xtSaBnT-27" value="a&amp;lt;c" style="rhombus;whiteSpace=wrap;html=1;" vertex="1" parent="WIyWlLk6GJQsqaUBKTNV-1">
          <mxGeometry x="680" y="910" width="80" height="80" as="geometry" />
        </mxCell>
        <mxCell id="ps4rAWVM_7RL9xtSaBnT-33" style="edgeStyle=orthogonalEdgeStyle;rounded=0;orthogonalLoop=1;jettySize=auto;html=1;" edge="1" parent="WIyWlLk6GJQsqaUBKTNV-1" source="ps4rAWVM_7RL9xtSaBnT-31" target="ps4rAWVM_7RL9xtSaBnT-32">
          <mxGeometry relative="1" as="geometry" />
        </mxCell>
        <mxCell id="ps4rAWVM_7RL9xtSaBnT-31" value="x = a" style="rounded=0;whiteSpace=wrap;html=1;" vertex="1" parent="WIyWlLk6GJQsqaUBKTNV-1">
          <mxGeometry x="870" y="1010" width="120" height="60" as="geometry" />
        </mxCell>
        <mxCell id="ps4rAWVM_7RL9xtSaBnT-36" value="V" style="edgeStyle=orthogonalEdgeStyle;rounded=0;orthogonalLoop=1;jettySize=auto;html=1;" edge="1" parent="WIyWlLk6GJQsqaUBKTNV-1" source="ps4rAWVM_7RL9xtSaBnT-32" target="ps4rAWVM_7RL9xtSaBnT-34">
          <mxGeometry relative="1" as="geometry" />
        </mxCell>
        <mxCell id="ps4rAWVM_7RL9xtSaBnT-37" value="F" style="edgeStyle=orthogonalEdgeStyle;rounded=0;orthogonalLoop=1;jettySize=auto;html=1;" edge="1" parent="WIyWlLk6GJQsqaUBKTNV-1" source="ps4rAWVM_7RL9xtSaBnT-32" target="ps4rAWVM_7RL9xtSaBnT-35">
          <mxGeometry relative="1" as="geometry" />
        </mxCell>
        <mxCell id="ps4rAWVM_7RL9xtSaBnT-32" value="b&amp;lt;c" style="rhombus;whiteSpace=wrap;html=1;" vertex="1" parent="WIyWlLk6GJQsqaUBKTNV-1">
          <mxGeometry x="890" y="1110" width="80" height="80" as="geometry" />
        </mxCell>
        <mxCell id="ps4rAWVM_7RL9xtSaBnT-39" style="edgeStyle=orthogonalEdgeStyle;rounded=0;orthogonalLoop=1;jettySize=auto;html=1;" edge="1" parent="WIyWlLk6GJQsqaUBKTNV-1" source="ps4rAWVM_7RL9xtSaBnT-34" target="ps4rAWVM_7RL9xtSaBnT-38">
          <mxGeometry relative="1" as="geometry" />
        </mxCell>
        <mxCell id="ps4rAWVM_7RL9xtSaBnT-34" value="y = b" style="rounded=0;whiteSpace=wrap;html=1;" vertex="1" parent="WIyWlLk6GJQsqaUBKTNV-1">
          <mxGeometry x="1000" y="1120" width="120" height="60" as="geometry" />
        </mxCell>
        <mxCell id="ps4rAWVM_7RL9xtSaBnT-41" style="edgeStyle=orthogonalEdgeStyle;rounded=0;orthogonalLoop=1;jettySize=auto;html=1;" edge="1" parent="WIyWlLk6GJQsqaUBKTNV-1" source="ps4rAWVM_7RL9xtSaBnT-35" target="ps4rAWVM_7RL9xtSaBnT-40">
          <mxGeometry relative="1" as="geometry" />
        </mxCell>
        <mxCell id="ps4rAWVM_7RL9xtSaBnT-35" value="y = c" style="rounded=0;whiteSpace=wrap;html=1;" vertex="1" parent="WIyWlLk6GJQsqaUBKTNV-1">
          <mxGeometry x="740" y="1120" width="120" height="60" as="geometry" />
        </mxCell>
        <mxCell id="ps4rAWVM_7RL9xtSaBnT-44" style="edgeStyle=orthogonalEdgeStyle;rounded=0;orthogonalLoop=1;jettySize=auto;html=1;entryX=1;entryY=0.5;entryDx=0;entryDy=0;" edge="1" parent="WIyWlLk6GJQsqaUBKTNV-1" source="ps4rAWVM_7RL9xtSaBnT-38" target="ps4rAWVM_7RL9xtSaBnT-42">
          <mxGeometry relative="1" as="geometry">
            <Array as="points">
              <mxPoint x="1060" y="1335" />
            </Array>
          </mxGeometry>
        </mxCell>
        <mxCell id="ps4rAWVM_7RL9xtSaBnT-38" value="z = c" style="rounded=0;whiteSpace=wrap;html=1;" vertex="1" parent="WIyWlLk6GJQsqaUBKTNV-1">
          <mxGeometry x="1000" y="1210" width="120" height="60" as="geometry" />
        </mxCell>
        <mxCell id="ps4rAWVM_7RL9xtSaBnT-43" style="edgeStyle=orthogonalEdgeStyle;rounded=0;orthogonalLoop=1;jettySize=auto;html=1;entryX=0;entryY=0.5;entryDx=0;entryDy=0;" edge="1" parent="WIyWlLk6GJQsqaUBKTNV-1" source="ps4rAWVM_7RL9xtSaBnT-40" target="ps4rAWVM_7RL9xtSaBnT-42">
          <mxGeometry relative="1" as="geometry">
            <Array as="points">
              <mxPoint x="800" y="1335" />
            </Array>
          </mxGeometry>
        </mxCell>
        <mxCell id="ps4rAWVM_7RL9xtSaBnT-40" value="z = b" style="rounded=0;whiteSpace=wrap;html=1;" vertex="1" parent="WIyWlLk6GJQsqaUBKTNV-1">
          <mxGeometry x="740" y="1210" width="120" height="60" as="geometry" />
        </mxCell>
        <mxCell id="ps4rAWVM_7RL9xtSaBnT-79" style="edgeStyle=orthogonalEdgeStyle;rounded=0;orthogonalLoop=1;jettySize=auto;html=1;entryX=1;entryY=0.5;entryDx=0;entryDy=0;" edge="1" parent="WIyWlLk6GJQsqaUBKTNV-1" source="ps4rAWVM_7RL9xtSaBnT-42" target="ps4rAWVM_7RL9xtSaBnT-74">
          <mxGeometry relative="1" as="geometry">
            <Array as="points">
              <mxPoint x="930" y="1580" />
            </Array>
          </mxGeometry>
        </mxCell>
        <mxCell id="ps4rAWVM_7RL9xtSaBnT-42" value="" style="ellipse;whiteSpace=wrap;html=1;aspect=fixed;" vertex="1" parent="WIyWlLk6GJQsqaUBKTNV-1">
          <mxGeometry x="905" y="1310" width="50" height="50" as="geometry" />
        </mxCell>
        <mxCell id="ps4rAWVM_7RL9xtSaBnT-49" style="edgeStyle=orthogonalEdgeStyle;rounded=0;orthogonalLoop=1;jettySize=auto;html=1;" edge="1" parent="WIyWlLk6GJQsqaUBKTNV-1" source="ps4rAWVM_7RL9xtSaBnT-46" target="ps4rAWVM_7RL9xtSaBnT-47">
          <mxGeometry relative="1" as="geometry" />
        </mxCell>
        <mxCell id="ps4rAWVM_7RL9xtSaBnT-46" value="x = c" style="rounded=0;whiteSpace=wrap;html=1;" vertex="1" parent="WIyWlLk6GJQsqaUBKTNV-1">
          <mxGeometry x="454" y="1000" width="120" height="60" as="geometry" />
        </mxCell>
        <mxCell id="ps4rAWVM_7RL9xtSaBnT-50" style="edgeStyle=orthogonalEdgeStyle;rounded=0;orthogonalLoop=1;jettySize=auto;html=1;" edge="1" parent="WIyWlLk6GJQsqaUBKTNV-1" source="ps4rAWVM_7RL9xtSaBnT-47" target="ps4rAWVM_7RL9xtSaBnT-48">
          <mxGeometry relative="1" as="geometry" />
        </mxCell>
        <mxCell id="ps4rAWVM_7RL9xtSaBnT-47" value="y = a" style="rounded=0;whiteSpace=wrap;html=1;" vertex="1" parent="WIyWlLk6GJQsqaUBKTNV-1">
          <mxGeometry x="454" y="1090" width="120" height="60" as="geometry" />
        </mxCell>
        <mxCell id="ps4rAWVM_7RL9xtSaBnT-80" style="edgeStyle=orthogonalEdgeStyle;rounded=0;orthogonalLoop=1;jettySize=auto;html=1;entryX=1;entryY=0;entryDx=0;entryDy=0;" edge="1" parent="WIyWlLk6GJQsqaUBKTNV-1" source="ps4rAWVM_7RL9xtSaBnT-48" target="ps4rAWVM_7RL9xtSaBnT-74">
          <mxGeometry relative="1" as="geometry">
            <Array as="points">
              <mxPoint x="514" y="1552" />
            </Array>
          </mxGeometry>
        </mxCell>
        <mxCell id="ps4rAWVM_7RL9xtSaBnT-48" value="z = b" style="rounded=0;whiteSpace=wrap;html=1;" vertex="1" parent="WIyWlLk6GJQsqaUBKTNV-1">
          <mxGeometry x="454" y="1180" width="120" height="60" as="geometry" />
        </mxCell>
        <mxCell id="ps4rAWVM_7RL9xtSaBnT-54" value="V" style="edgeStyle=orthogonalEdgeStyle;rounded=0;orthogonalLoop=1;jettySize=auto;html=1;" edge="1" parent="WIyWlLk6GJQsqaUBKTNV-1" source="ps4rAWVM_7RL9xtSaBnT-52" target="ps4rAWVM_7RL9xtSaBnT-53">
          <mxGeometry relative="1" as="geometry" />
        </mxCell>
        <mxCell id="ps4rAWVM_7RL9xtSaBnT-73" style="edgeStyle=orthogonalEdgeStyle;rounded=0;orthogonalLoop=1;jettySize=auto;html=1;entryX=0.5;entryY=0;entryDx=0;entryDy=0;" edge="1" parent="WIyWlLk6GJQsqaUBKTNV-1" source="ps4rAWVM_7RL9xtSaBnT-52" target="ps4rAWVM_7RL9xtSaBnT-69">
          <mxGeometry relative="1" as="geometry" />
        </mxCell>
        <mxCell id="ps4rAWVM_7RL9xtSaBnT-52" value="c&amp;lt;a" style="rhombus;whiteSpace=wrap;html=1;" vertex="1" parent="WIyWlLk6GJQsqaUBKTNV-1">
          <mxGeometry x="-30" y="890" width="80" height="80" as="geometry" />
        </mxCell>
        <mxCell id="ps4rAWVM_7RL9xtSaBnT-56" style="edgeStyle=orthogonalEdgeStyle;rounded=0;orthogonalLoop=1;jettySize=auto;html=1;entryX=0.5;entryY=0;entryDx=0;entryDy=0;" edge="1" parent="WIyWlLk6GJQsqaUBKTNV-1" source="ps4rAWVM_7RL9xtSaBnT-53" target="ps4rAWVM_7RL9xtSaBnT-55">
          <mxGeometry relative="1" as="geometry">
            <mxPoint x="140" y="1130" as="targetPoint" />
          </mxGeometry>
        </mxCell>
        <mxCell id="ps4rAWVM_7RL9xtSaBnT-53" value="z = a" style="rounded=0;whiteSpace=wrap;html=1;" vertex="1" parent="WIyWlLk6GJQsqaUBKTNV-1">
          <mxGeometry x="90" y="1000" width="120" height="60" as="geometry" />
        </mxCell>
        <mxCell id="ps4rAWVM_7RL9xtSaBnT-59" value="V" style="edgeStyle=orthogonalEdgeStyle;rounded=0;orthogonalLoop=1;jettySize=auto;html=1;entryX=0;entryY=0.5;entryDx=0;entryDy=0;" edge="1" parent="WIyWlLk6GJQsqaUBKTNV-1" source="ps4rAWVM_7RL9xtSaBnT-55" target="ps4rAWVM_7RL9xtSaBnT-57">
          <mxGeometry relative="1" as="geometry" />
        </mxCell>
        <mxCell id="ps4rAWVM_7RL9xtSaBnT-64" value="F" style="edgeStyle=orthogonalEdgeStyle;rounded=0;orthogonalLoop=1;jettySize=auto;html=1;" edge="1" parent="WIyWlLk6GJQsqaUBKTNV-1" source="ps4rAWVM_7RL9xtSaBnT-55" target="ps4rAWVM_7RL9xtSaBnT-62">
          <mxGeometry relative="1" as="geometry" />
        </mxCell>
        <mxCell id="ps4rAWVM_7RL9xtSaBnT-55" value="b&amp;lt;c" style="rhombus;whiteSpace=wrap;html=1;" vertex="1" parent="WIyWlLk6GJQsqaUBKTNV-1">
          <mxGeometry x="110" y="1100" width="80" height="80" as="geometry" />
        </mxCell>
        <mxCell id="ps4rAWVM_7RL9xtSaBnT-60" style="edgeStyle=orthogonalEdgeStyle;rounded=0;orthogonalLoop=1;jettySize=auto;html=1;" edge="1" parent="WIyWlLk6GJQsqaUBKTNV-1" source="ps4rAWVM_7RL9xtSaBnT-57" target="ps4rAWVM_7RL9xtSaBnT-58">
          <mxGeometry relative="1" as="geometry" />
        </mxCell>
        <mxCell id="ps4rAWVM_7RL9xtSaBnT-57" value="y = c" style="rounded=0;whiteSpace=wrap;html=1;" vertex="1" parent="WIyWlLk6GJQsqaUBKTNV-1">
          <mxGeometry x="240" y="1109" width="120" height="60" as="geometry" />
        </mxCell>
        <mxCell id="ps4rAWVM_7RL9xtSaBnT-66" style="edgeStyle=orthogonalEdgeStyle;rounded=0;orthogonalLoop=1;jettySize=auto;html=1;entryX=1;entryY=0.5;entryDx=0;entryDy=0;" edge="1" parent="WIyWlLk6GJQsqaUBKTNV-1" source="ps4rAWVM_7RL9xtSaBnT-58" target="ps4rAWVM_7RL9xtSaBnT-65">
          <mxGeometry relative="1" as="geometry">
            <Array as="points">
              <mxPoint x="300" y="1355" />
            </Array>
          </mxGeometry>
        </mxCell>
        <mxCell id="ps4rAWVM_7RL9xtSaBnT-58" value="x = b&lt;br&gt;" style="rounded=0;whiteSpace=wrap;html=1;" vertex="1" parent="WIyWlLk6GJQsqaUBKTNV-1">
          <mxGeometry x="240" y="1210" width="120" height="60" as="geometry" />
        </mxCell>
        <mxCell id="ps4rAWVM_7RL9xtSaBnT-61" style="edgeStyle=orthogonalEdgeStyle;rounded=0;orthogonalLoop=1;jettySize=auto;html=1;" edge="1" parent="WIyWlLk6GJQsqaUBKTNV-1" source="ps4rAWVM_7RL9xtSaBnT-62" target="ps4rAWVM_7RL9xtSaBnT-63">
          <mxGeometry relative="1" as="geometry" />
        </mxCell>
        <mxCell id="ps4rAWVM_7RL9xtSaBnT-62" value="y = b" style="rounded=0;whiteSpace=wrap;html=1;" vertex="1" parent="WIyWlLk6GJQsqaUBKTNV-1">
          <mxGeometry x="-50" y="1110" width="120" height="60" as="geometry" />
        </mxCell>
        <mxCell id="ps4rAWVM_7RL9xtSaBnT-67" style="edgeStyle=orthogonalEdgeStyle;rounded=0;orthogonalLoop=1;jettySize=auto;html=1;entryX=0;entryY=0.5;entryDx=0;entryDy=0;" edge="1" parent="WIyWlLk6GJQsqaUBKTNV-1" source="ps4rAWVM_7RL9xtSaBnT-63" target="ps4rAWVM_7RL9xtSaBnT-65">
          <mxGeometry relative="1" as="geometry">
            <Array as="points">
              <mxPoint x="10" y="1355" />
            </Array>
          </mxGeometry>
        </mxCell>
        <mxCell id="ps4rAWVM_7RL9xtSaBnT-63" value="x = c" style="rounded=0;whiteSpace=wrap;html=1;" vertex="1" parent="WIyWlLk6GJQsqaUBKTNV-1">
          <mxGeometry x="-50" y="1211" width="120" height="60" as="geometry" />
        </mxCell>
        <mxCell id="ps4rAWVM_7RL9xtSaBnT-78" style="edgeStyle=orthogonalEdgeStyle;rounded=0;orthogonalLoop=1;jettySize=auto;html=1;entryX=0;entryY=0;entryDx=0;entryDy=0;" edge="1" parent="WIyWlLk6GJQsqaUBKTNV-1" source="ps4rAWVM_7RL9xtSaBnT-65" target="ps4rAWVM_7RL9xtSaBnT-74">
          <mxGeometry relative="1" as="geometry">
            <Array as="points">
              <mxPoint x="150" y="1552" />
            </Array>
          </mxGeometry>
        </mxCell>
        <mxCell id="ps4rAWVM_7RL9xtSaBnT-65" value="" style="ellipse;whiteSpace=wrap;html=1;aspect=fixed;" vertex="1" parent="WIyWlLk6GJQsqaUBKTNV-1">
          <mxGeometry x="125" y="1330" width="50" height="50" as="geometry" />
        </mxCell>
        <mxCell id="ps4rAWVM_7RL9xtSaBnT-68" style="edgeStyle=orthogonalEdgeStyle;rounded=0;orthogonalLoop=1;jettySize=auto;html=1;" edge="1" parent="WIyWlLk6GJQsqaUBKTNV-1" source="ps4rAWVM_7RL9xtSaBnT-69" target="ps4rAWVM_7RL9xtSaBnT-71">
          <mxGeometry relative="1" as="geometry" />
        </mxCell>
        <mxCell id="ps4rAWVM_7RL9xtSaBnT-69" value="x = b" style="rounded=0;whiteSpace=wrap;html=1;" vertex="1" parent="WIyWlLk6GJQsqaUBKTNV-1">
          <mxGeometry x="-260" y="1000" width="120" height="60" as="geometry" />
        </mxCell>
        <mxCell id="ps4rAWVM_7RL9xtSaBnT-70" style="edgeStyle=orthogonalEdgeStyle;rounded=0;orthogonalLoop=1;jettySize=auto;html=1;" edge="1" parent="WIyWlLk6GJQsqaUBKTNV-1" source="ps4rAWVM_7RL9xtSaBnT-71" target="ps4rAWVM_7RL9xtSaBnT-72">
          <mxGeometry relative="1" as="geometry" />
        </mxCell>
        <mxCell id="ps4rAWVM_7RL9xtSaBnT-71" value="y = a" style="rounded=0;whiteSpace=wrap;html=1;" vertex="1" parent="WIyWlLk6GJQsqaUBKTNV-1">
          <mxGeometry x="-260" y="1090" width="120" height="60" as="geometry" />
        </mxCell>
        <mxCell id="ps4rAWVM_7RL9xtSaBnT-77" style="edgeStyle=orthogonalEdgeStyle;rounded=0;orthogonalLoop=1;jettySize=auto;html=1;entryX=0;entryY=0.5;entryDx=0;entryDy=0;" edge="1" parent="WIyWlLk6GJQsqaUBKTNV-1" source="ps4rAWVM_7RL9xtSaBnT-72" target="ps4rAWVM_7RL9xtSaBnT-74">
          <mxGeometry relative="1" as="geometry">
            <Array as="points">
              <mxPoint x="-200" y="1580" />
            </Array>
          </mxGeometry>
        </mxCell>
        <mxCell id="ps4rAWVM_7RL9xtSaBnT-72" value="z = c" style="rounded=0;whiteSpace=wrap;html=1;" vertex="1" parent="WIyWlLk6GJQsqaUBKTNV-1">
          <mxGeometry x="-260" y="1180" width="120" height="60" as="geometry" />
        </mxCell>
        <mxCell id="ps4rAWVM_7RL9xtSaBnT-85" style="edgeStyle=orthogonalEdgeStyle;rounded=0;orthogonalLoop=1;jettySize=auto;html=1;" edge="1" parent="WIyWlLk6GJQsqaUBKTNV-1" source="ps4rAWVM_7RL9xtSaBnT-74" target="ps4rAWVM_7RL9xtSaBnT-82">
          <mxGeometry relative="1" as="geometry" />
        </mxCell>
        <mxCell id="ps4rAWVM_7RL9xtSaBnT-74" value="" style="ellipse;whiteSpace=wrap;html=1;aspect=fixed;" vertex="1" parent="WIyWlLk6GJQsqaUBKTNV-1">
          <mxGeometry x="370" y="1540" width="80" height="80" as="geometry" />
        </mxCell>
        <mxCell id="ps4rAWVM_7RL9xtSaBnT-86" style="edgeStyle=orthogonalEdgeStyle;rounded=0;orthogonalLoop=1;jettySize=auto;html=1;" edge="1" parent="WIyWlLk6GJQsqaUBKTNV-1" source="ps4rAWVM_7RL9xtSaBnT-82" target="ps4rAWVM_7RL9xtSaBnT-83">
          <mxGeometry relative="1" as="geometry" />
        </mxCell>
        <mxCell id="ps4rAWVM_7RL9xtSaBnT-82" value="Primer Numero: x" style="shape=document;whiteSpace=wrap;html=1;boundedLbl=1;size=0.625;" vertex="1" parent="WIyWlLk6GJQsqaUBKTNV-1">
          <mxGeometry x="350" y="1670" width="120" height="80" as="geometry" />
        </mxCell>
        <mxCell id="ps4rAWVM_7RL9xtSaBnT-87" style="edgeStyle=orthogonalEdgeStyle;rounded=0;orthogonalLoop=1;jettySize=auto;html=1;" edge="1" parent="WIyWlLk6GJQsqaUBKTNV-1" source="ps4rAWVM_7RL9xtSaBnT-83" target="ps4rAWVM_7RL9xtSaBnT-84">
          <mxGeometry relative="1" as="geometry" />
        </mxCell>
        <mxCell id="ps4rAWVM_7RL9xtSaBnT-83" value="Segundo Numero: y" style="shape=document;whiteSpace=wrap;html=1;boundedLbl=1;size=0.625;" vertex="1" parent="WIyWlLk6GJQsqaUBKTNV-1">
          <mxGeometry x="350" y="1800" width="120" height="80" as="geometry" />
        </mxCell>
        <mxCell id="ps4rAWVM_7RL9xtSaBnT-89" style="edgeStyle=orthogonalEdgeStyle;rounded=0;orthogonalLoop=1;jettySize=auto;html=1;" edge="1" parent="WIyWlLk6GJQsqaUBKTNV-1" source="ps4rAWVM_7RL9xtSaBnT-84" target="ps4rAWVM_7RL9xtSaBnT-88">
          <mxGeometry relative="1" as="geometry" />
        </mxCell>
        <mxCell id="ps4rAWVM_7RL9xtSaBnT-84" value="Tercer Numero: z" style="shape=document;whiteSpace=wrap;html=1;boundedLbl=1;size=0.625;" vertex="1" parent="WIyWlLk6GJQsqaUBKTNV-1">
          <mxGeometry x="350" y="1920" width="120" height="80" as="geometry" />
        </mxCell>
        <mxCell id="ps4rAWVM_7RL9xtSaBnT-88" value="FIN" style="rounded=1;whiteSpace=wrap;html=1;arcSize=50;" vertex="1" parent="WIyWlLk6GJQsqaUBKTNV-1">
          <mxGeometry x="340" y="2050" width="140" height="60" as="geometry" />
        </mxCell>
      </root>
    </mxGraphModel>
  </diagram>
</mxfile>
